<?xml version="1.0" encoding="UTF-8"?>
<svg xmlns="http://www.w3.org/2000/svg" xmlns:xlink="http://www.w3.org/1999/xlink" width="198pt" height="201pt" viewBox="0 0 198 201" version="1.1">
<g id="surface1">
<path style=" stroke:none;fill-rule:evenodd;fill:rgb(5.490196%,53.333333%,82.745098%);fill-opacity:1;" d="M 45.800781 31.929688 L 41.472656 41.160156 L 56.4375 44.660156 L 60.691406 35.503906 Z M 63.953125 36.324219 L 59.699219 45.554688 L 74.660156 49.125 L 78.839844 39.96875 Z M 112.519531 48.085938 L 108.339844 57.316406 L 123.300781 60.964844 L 127.554688 51.734375 Z M 130.742188 52.554688 L 126.492188 61.78125 L 141.519531 65.355469 L 145.703125 56.199219 Z M 130.742188 52.554688 "/>
<path style=" stroke:none;fill-rule:evenodd;fill:rgb(5.490196%,53.333333%,82.745098%);fill-opacity:1;" d="M 114.007812 112.179688 C 113.160156 112.179688 112.378906 112.550781 111.671875 113.222656 C 111.101562 113.816406 110.679688 114.785156 110.679688 115.75 C 110.679688 116.722656 111.101562 117.539062 111.671875 118.28125 C 112.378906 118.878906 113.160156 119.324219 114.007812 119.324219 C 115.003906 119.324219 115.925781 118.878906 116.492188 118.28125 C 117.199219 117.539062 117.484375 116.722656 117.484375 115.75 C 117.484375 114.785156 117.199219 113.816406 116.492188 113.222656 C 115.925781 112.550781 115.003906 112.179688 114.007812 112.179688 Z M 107.839844 121.1875 L 107.839844 125.429688 L 131.738281 125.429688 C 128.476562 126.175781 125.570312 127.8125 123.441406 130.117188 C 122.308594 131.3125 121.246094 133.171875 120.25 135.554688 C 119.824219 136.59375 119.46875 137.640625 119.046875 138.828125 C 125.992188 138.90625 130.320312 139.199219 132.234375 139.945312 C 133.507812 140.464844 134.644531 141.210938 135.851562 142.105469 C 137.335938 143.292969 138.121094 144.414062 138.332031 145.53125 L 124.292969 145.53125 L 119.542969 150.519531 L 135.992188 150.519531 C 140.8125 146.722656 143.152344 143.59375 143.152344 141.058594 C 143.152344 139.945312 142.65625 138.90625 141.804688 138.011719 C 139.890625 136 137.335938 134.734375 134.148438 134.140625 C 132.515625 133.839844 129.609375 133.617188 125.496094 133.617188 C 126.0625 132.800781 126.703125 131.757812 127.199219 130.789062 C 128.050781 129.675781 128.828125 129.152344 129.753906 129.152344 C 131.878906 129.152344 135.496094 130.640625 140.316406 133.546875 L 145.136719 128.410156 C 143.292969 127.21875 141.382812 126.175781 139.605469 125.429688 L 195.90625 125.429688 L 195.90625 121.1875 Z M 111.101562 128.851562 L 111.101562 150.519531 L 116.988281 150.519531 L 116.988281 128.851562 Z M 147.902344 128.851562 L 147.902344 150.519531 L 153.855469 150.519531 L 153.855469 135.777344 C 155.417969 135.105469 156.976562 134.660156 158.609375 134.660156 C 160.238281 134.660156 161.519531 135.183594 162.507812 136 C 163.714844 137.339844 164.210938 139.429688 163.996094 142.257812 L 169.03125 137.117188 C 169.175781 134.4375 168.535156 132.351562 167.261719 131.011719 C 166.195312 129.96875 164.917969 129.375 163.289062 129.375 C 161.730469 129.375 159.957031 129.894531 158.113281 131.011719 C 156.410156 131.828125 154.996094 133.023438 153.855469 134.210938 L 153.855469 128.851562 Z M 172.082031 128.851562 L 172.082031 145.007812 C 172.082031 145.007812 172.222656 148.136719 174.210938 149.695312 C 175.554688 150.589844 177.46875 150.519531 177.46875 150.519531 L 193.5625 150.519531 L 193.5625 134.660156 C 193.5625 133.09375 193.066406 131.757812 192.214844 130.640625 C 191.4375 129.449219 190.375 128.851562 189.097656 128.851562 Z M 186.605469 134.550781 C 188.144531 134.519531 188.035156 134.945312 188.035156 137.488281 L 188.035156 144.707031 L 178.746094 144.707031 C 178.746094 144.707031 177.824219 144.785156 177.609375 144.488281 C 177.332031 144.113281 177.46875 143.667969 177.46875 141.507812 L 177.46875 134.585938 L 185.839844 134.585938 C 186.132812 134.566406 186.382812 134.550781 186.605469 134.550781 Z M 186.605469 134.550781 "/>
<path style=" stroke:none;fill-rule:evenodd;fill:rgb(95.686275%,44.705882%,8.627451%);fill-opacity:1;" d="M 49.628906 117.015625 L 103.445312 2.449219 L 103.09375 198.980469 L 88.273438 68.257812 L 49.628906 117.015625 "/>
<path style=" stroke:none;fill-rule:evenodd;fill:rgb(95.686275%,44.705882%,8.627451%);fill-opacity:1;" d="M 73.097656 109.347656 C 72.75 109.359375 72.398438 109.386719 72.035156 109.421875 L 70.050781 114.414062 C 75.644531 113.347656 78.035156 114.988281 80.148438 121.035156 L 1.558594 121.035156 L 1.558594 125.355469 L 20.488281 125.355469 L 20.488281 127.8125 C 20.488281 127.8125 12.972656 124.683594 6.59375 130.710938 C 1.558594 136.820312 5.808594 142.777344 5.808594 142.777344 C 5.808594 142.777344 9.925781 140.394531 16.445312 141.507812 C 22.542969 142.625 22.261719 145.675781 22.261719 145.675781 C 22.261719 145.675781 21.410156 149.476562 16.515625 148.730469 C 11.625 147.910156 11.980469 142.777344 11.980469 142.777344 L 6.59375 146.570312 C 6.59375 146.570312 8.640625 150.230469 13.25 151.402344 L 17.371094 157.890625 L 23.46875 157.890625 L 18.765625 151.503906 C 19.296875 151.40625 19.84375 151.277344 20.417969 151.113281 C 32.257812 147.839844 28.074219 138.457031 19.285156 136 C 13.183594 134.363281 6.59375 137.488281 6.59375 137.488281 C 6.59375 137.488281 7.4375 129.59375 18.359375 131.460938 C 24.460938 132.574219 26.65625 135.183594 26.65625 135.183594 L 26.65625 125.355469 L 38.878906 125.355469 L 33.746094 127.882812 C 33.746094 127.882812 36.371094 130.9375 37.292969 134.957031 C 38.074219 139.125 36.371094 139.871094 35.308594 139.945312 C 34.601562 139.425781 31.269531 134.4375 31.269531 134.4375 L 28.925781 136.59375 L 37.363281 150.519531 L 43.320312 150.519531 C 43.320312 150.519531 37.863281 143.59375 37.007812 142.328125 C 38.40625 142.277344 40.335938 141.808594 41.597656 140.011719 C 42.480469 140.496094 43.558594 140.890625 44.808594 140.988281 C 48.566406 141.359375 50.90625 139.425781 50.90625 139.425781 L 50.90625 150.519531 L 57.074219 150.519531 L 57.074219 125.355469 L 70.417969 125.355469 L 65.226562 127.882812 C 65.226562 127.882812 67.992188 130.9375 68.773438 134.957031 C 69.550781 139.125 67.921875 139.871094 66.789062 139.945312 C 66.222656 139.425781 62.75 134.4375 62.75 134.4375 L 60.40625 136.59375 L 68.773438 150.519531 L 74.796875 150.519531 C 74.796875 150.519531 69.484375 143.59375 68.632812 142.328125 C 70.546875 142.257812 73.734375 141.285156 74.300781 136.523438 C 75.128906 130.199219 72.445312 126.445312 71.511719 125.355469 L 78.839844 125.355469 L 78.839844 150.515625 L 85.007812 150.515625 L 85.007812 125.355469 L 88.273438 125.355469 L 88.273438 121.035156 L 83.769531 121.035156 C 81.222656 111.675781 78.113281 109.15625 73.097656 109.347656 Z M 39.96875 125.355469 L 50.90625 125.355469 L 50.90625 132.648438 C 50.90625 132.648438 50.90625 134.664062 47.148438 136.59375 C 45.5625 137.503906 43.9375 137.855469 42.542969 137.953125 C 42.664062 137.515625 42.757812 137.046875 42.820312 136.523438 C 43.652344 130.199219 40.914062 126.449219 39.96875 125.355469 Z M 39.96875 125.355469 "/>
</g>
</svg>
